HIERARCHY
ROOT Hips
{
	OFFSET 0.000000 97.167313 0.000000
	CHANNELS 6 Xposition Yposition Zposition Xrotation Yrotation Zrotation
	JOINT Spine
	{
		OFFSET 0.000000 13.784798 0.064400
		CHANNELS 3 Xrotation Yrotation Zrotation
		JOINT Spine1
		{
			OFFSET 0.000000 12.037903 0.404700
			CHANNELS 3 Xrotation Yrotation Zrotation
			JOINT Spine2
			{
				OFFSET 0.000000 17.795601 0.420200
				CHANNELS 3 Xrotation Yrotation Zrotation
				JOINT Neck
				{
					OFFSET 0.000000 39.131302 11.954600
					CHANNELS 3 Xrotation Yrotation Zrotation
					JOINT Head
					{
						OFFSET 0.000000 14.456192 15.627699
						CHANNELS 3 Xrotation Yrotation Zrotation
						JOINT HeadTop_End
						{
							OFFSET 0.000000 15.703506 7.603401
							CHANNELS 3 Xrotation Yrotation Zrotation
							End Site
							{
								OFFSET 0.000000 17.447403 0.000000
							}
						}
					}
				}
				JOINT LeftShoulder
				{
					OFFSET 17.399500 24.608795 1.168800
					CHANNELS 3 Xrotation Yrotation Zrotation
					JOINT LeftArm
					{
						OFFSET 18.980635 5.765305 1.818600
						CHANNELS 3 Xrotation Yrotation Zrotation
						JOINT LeftForeArm
						{
							OFFSET 49.290169 0.000000 0.000000
							CHANNELS 3 Xrotation Yrotation Zrotation
							JOINT LeftHand
							{
								OFFSET 31.562012 0.000000 0.000000
								CHANNELS 3 Xrotation Yrotation Zrotation
								JOINT LeftHandThumb1
								{
									OFFSET 6.133995 -4.388519 7.076070
									CHANNELS 3 Xrotation Yrotation Zrotation
									JOINT LeftHandThumb2
									{
										OFFSET 6.037666 -3.485840 3.485847
										CHANNELS 3 Xrotation Yrotation Zrotation
										JOINT LeftHandThumb3
										{
											OFFSET 6.496506 -3.750763 3.750761
											CHANNELS 3 Xrotation Yrotation Zrotation
											JOINT LeftHandThumb4
											{
												OFFSET 5.616882 -3.242905 3.242910
												CHANNELS 3 Xrotation Yrotation Zrotation
												End Site
												{
													OFFSET -1.254608 7.132141 0.375429
												}
											}
										}
									}
								}
								JOINT LeftHandPinky1
								{
									OFFSET 18.920792 -0.453171 -11.426712
									CHANNELS 3 Xrotation Yrotation Zrotation
									JOINT LeftHandPinky2
									{
										OFFSET 4.919586 0.000000 0.000000
										CHANNELS 3 Xrotation Yrotation Zrotation
										JOINT LeftHandPinky3
										{
											OFFSET 5.233047 0.000000 0.000000
											CHANNELS 3 Xrotation Yrotation Zrotation
											JOINT LeftHandPinky4
											{
												OFFSET 5.571716 0.000000 0.000000
												CHANNELS 3 Xrotation Yrotation Zrotation
												End Site
												{
													OFFSET -3.459808 4.342407 -0.466164
												}
											}
										}
									}
								}
								JOINT LeftHandRing1
								{
									OFFSET 22.726120 -0.094986 -6.500475
									CHANNELS 3 Xrotation Yrotation Zrotation
									JOINT LeftHandRing2
									{
										OFFSET 6.408615 0.000000 0.000000
										CHANNELS 3 Xrotation Yrotation Zrotation
										JOINT LeftHandRing3
										{
											OFFSET 6.150223 0.000000 0.000000
											CHANNELS 3 Xrotation Yrotation Zrotation
											JOINT LeftHandRing4
											{
												OFFSET 6.145386 0.000000 0.000000
												CHANNELS 3 Xrotation Yrotation Zrotation
												End Site
												{
													OFFSET -3.671402 4.923981 -0.202372
												}
											}
										}
									}
								}
								JOINT LeftHandMiddle1
								{
									OFFSET 23.373947 0.000000 0.000001
									CHANNELS 3 Xrotation Yrotation Zrotation
									JOINT LeftHandMiddle2
									{
										OFFSET 6.996567 0.000000 0.000000
										CHANNELS 3 Xrotation Yrotation Zrotation
										JOINT LeftHandMiddle3
										{
											OFFSET 7.015945 0.000000 0.000000
											CHANNELS 3 Xrotation Yrotation Zrotation
											JOINT LeftHandMiddle4
											{
												OFFSET 7.721573 0.000000 0.000000
												CHANNELS 3 Xrotation Yrotation Zrotation
												End Site
												{
													OFFSET -4.651108 6.158463 0.251582
												}
											}
										}
									}
								}
								JOINT LeftHandIndex1
								{
									OFFSET 21.310577 -0.490082 6.209344
									CHANNELS 3 Xrotation Yrotation Zrotation
									JOINT LeftHandIndex2
									{
										OFFSET 7.536453 0.000000 0.000000
										CHANNELS 3 Xrotation Yrotation Zrotation
										JOINT LeftHandIndex3
										{
											OFFSET 7.512344 0.000000 0.000000
											CHANNELS 3 Xrotation Yrotation Zrotation
											JOINT LeftHandIndex4
											{
												OFFSET 10.212402 0.000000 0.000001
												CHANNELS 3 Xrotation Yrotation Zrotation
												End Site
												{
													OFFSET -5.180801 8.690506 1.388433
												}
											}
										}
									}
								}
							}
						}
					}
				}
				JOINT RightShoulder
				{
					OFFSET -17.399500 24.608795 1.168800
					CHANNELS 3 Xrotation Yrotation Zrotation
					JOINT RightArm
					{
						OFFSET -18.980635 5.765305 1.818600
						CHANNELS 3 Xrotation Yrotation Zrotation
						JOINT RightForeArm
						{
							OFFSET -49.290169 0.000000 0.000000
							CHANNELS 3 Xrotation Yrotation Zrotation
							JOINT RightHand
							{
								OFFSET -31.562012 0.000000 0.000000
								CHANNELS 3 Xrotation Yrotation Zrotation
								JOINT RightHandThumb1
								{
									OFFSET -6.133995 -4.388519 7.076070
									CHANNELS 3 Xrotation Yrotation Zrotation
									JOINT RightHandThumb2
									{
										OFFSET -6.037666 -3.485840 3.485847
										CHANNELS 3 Xrotation Yrotation Zrotation
										JOINT RightHandThumb3
										{
											OFFSET -6.496506 -3.750763 3.750761
											CHANNELS 3 Xrotation Yrotation Zrotation
											JOINT RightHandThumb4
											{
												OFFSET -5.616882 -3.242905 3.242910
												CHANNELS 3 Xrotation Yrotation Zrotation
												End Site
												{
													OFFSET 1.254608 7.132141 0.375429
												}
											}
										}
									}
								}
								JOINT RightHandIndex1
								{
									OFFSET -21.310577 -0.490082 6.209344
									CHANNELS 3 Xrotation Yrotation Zrotation
									JOINT RightHandIndex2
									{
										OFFSET -7.536453 0.000000 0.000000
										CHANNELS 3 Xrotation Yrotation Zrotation
										JOINT RightHandIndex3
										{
											OFFSET -7.512344 0.000000 0.000000
											CHANNELS 3 Xrotation Yrotation Zrotation
											JOINT RightHandIndex4
											{
												OFFSET -10.212402 0.000000 0.000001
												CHANNELS 3 Xrotation Yrotation Zrotation
												End Site
												{
													OFFSET 5.180801 8.690506 1.388433
												}
											}
										}
									}
								}
								JOINT RightHandMiddle1
								{
									OFFSET -23.373947 0.000000 0.000001
									CHANNELS 3 Xrotation Yrotation Zrotation
									JOINT RightHandMiddle2
									{
										OFFSET -6.996567 0.000000 0.000000
										CHANNELS 3 Xrotation Yrotation Zrotation
										JOINT RightHandMiddle3
										{
											OFFSET -7.015945 0.000000 0.000000
											CHANNELS 3 Xrotation Yrotation Zrotation
											JOINT RightHandMiddle4
											{
												OFFSET -7.721573 0.000000 0.000000
												CHANNELS 3 Xrotation Yrotation Zrotation
												End Site
												{
													OFFSET 4.651108 6.158463 0.251582
												}
											}
										}
									}
								}
								JOINT RightHandRing1
								{
									OFFSET -22.726120 -0.094986 -6.500475
									CHANNELS 3 Xrotation Yrotation Zrotation
									JOINT RightHandRing2
									{
										OFFSET -6.408615 0.000000 0.000000
										CHANNELS 3 Xrotation Yrotation Zrotation
										JOINT RightHandRing3
										{
											OFFSET -6.150223 0.000000 0.000000
											CHANNELS 3 Xrotation Yrotation Zrotation
											JOINT RightHandRing4
											{
												OFFSET -6.145386 0.000000 0.000000
												CHANNELS 3 Xrotation Yrotation Zrotation
												End Site
												{
													OFFSET 3.671402 4.923981 -0.202372
												}
											}
										}
									}
								}
								JOINT RightHandPinky1
								{
									OFFSET -18.920792 -0.453171 -11.426712
									CHANNELS 3 Xrotation Yrotation Zrotation
									JOINT RightHandPinky2
									{
										OFFSET -4.919586 0.000000 0.000000
										CHANNELS 3 Xrotation Yrotation Zrotation
										JOINT RightHandPinky3
										{
											OFFSET -5.233047 0.000000 0.000000
											CHANNELS 3 Xrotation Yrotation Zrotation
											JOINT RightHandPinky4
											{
												OFFSET -5.571716 0.000000 0.000000
												CHANNELS 3 Xrotation Yrotation Zrotation
												End Site
												{
													OFFSET 3.459808 4.342407 -0.466164
												}
											}
										}
									}
								}
							}
						}
					}
				}
			}
		}
	}
	JOINT LeftUpLeg
	{
		OFFSET 19.899099 -7.885101 -3.429500
		CHANNELS 3 Xrotation Yrotation Zrotation
		JOINT LeftLeg
		{
			OFFSET 1.745560 -36.997807 10.304700
			CHANNELS 3 Xrotation Yrotation Zrotation
			JOINT LeftFoot
			{
				OFFSET -1.745558 -29.803308 -13.615400
				CHANNELS 3 Xrotation Yrotation Zrotation
				JOINT LeftToeBase
				{
					OFFSET 1.181900 -18.539904 15.226099
					CHANNELS 3 Xrotation Yrotation Zrotation
					JOINT LeftToe_End
					{
						OFFSET -0.863701 1.402801 16.534700
						CHANNELS 3 Xrotation Yrotation Zrotation
						End Site
						{
							OFFSET 0.000000 16.616566 0.000000
						}
					}
				}
			}
		}
	}
	JOINT RightUpLeg
	{
		OFFSET -19.899099 -7.885101 -3.429500
		CHANNELS 3 Xrotation Yrotation Zrotation
		JOINT RightLeg
		{
			OFFSET -1.745560 -36.997807 10.304700
			CHANNELS 3 Xrotation Yrotation Zrotation
			JOINT RightFoot
			{
				OFFSET 1.745558 -29.803308 -13.615400
				CHANNELS 3 Xrotation Yrotation Zrotation
				JOINT RightToeBase
				{
					OFFSET -1.181900 -18.539904 15.226099
					CHANNELS 3 Xrotation Yrotation Zrotation
					JOINT RightToe_End
					{
						OFFSET 0.863701 1.402801 16.534700
						CHANNELS 3 Xrotation Yrotation Zrotation
						End Site
						{
							OFFSET 0.000000 16.616566 0.000000
						}
					}
				}
			}
		}
	}
}
MOTION
Frames: 4
Frame Time: 0.033333
79.542625 19.351692 403.747864 344.465264 5.059171 81.494860 13.790507 -2.272176 -2.239108 4.282091 -0.291866 -1.640235 4.281624 -0.316814 -1.636105 6.492033 -1.663433 0.099947 16.116666 -13.415424 -9.818853 -0.000000 -0.000001 -0.000003 0.157343 -17.097978 -13.266288 -31.730600 -9.521101 -36.032489 89.677891 -59.227623 89.423056 -5.359530 -1.041002 8.614280 -0.991524 6.217936 -5.523280 13.949554 15.222986 17.617887 -1.090721 -38.668307 12.707003 -0.000000 -0.000000 0.000000 7.448332 13.680448 -76.491644 4.265428 5.632824 -74.250044 3.914930 5.522500 -70.645343 -0.000000 0.000002 -0.000002 2.855267 7.631018 -76.349371 5.752454 5.850224 -89.032513 3.680754 5.434950 -68.192820 0.000001 0.000002 0.000005 4.643937 8.060318 -78.307169 4.560887 5.707538 -77.240007 2.916450 5.064126 -59.854102 -0.000001 -0.000000 0.000001 9.304545 5.831014 -88.279765 3.987744 5.547431 -71.400195 5.267456 5.821986 -84.265683 0.000000 -0.000000 -0.000001 0.083983 14.424420 14.886192 -51.181968 9.481536 57.250837 0.000027 49.587108 -0.000022 51.977200 12.367254 -26.718892 5.535801 -3.771066 -3.032811 2.457540 -9.078669 -15.939565 -8.950783 17.083988 -15.511795 -0.000000 -0.000002 0.000002 -3.723533 -3.298337 73.104976 3.463123 -4.501827 75.128509 2.055813 -3.864255 56.013900 -0.000002 -0.000003 -0.000001 -3.073211 -4.980230 74.622351 3.766050 -4.571294 78.956994 3.246666 -4.438883 72.351941 -0.000001 -0.000000 -0.000004 -3.819534 -5.359673 78.849521 3.124231 -4.398177 70.762850 2.797529 -4.270519 66.441867 -0.000001 -0.000000 -0.000003 -1.443999 -6.451689 84.219531 3.515537 -4.515349 75.795087 1.230068 -3.155328 42.587210 0.000000 -0.000001 -0.000001 4.415861 26.428497 27.571681 26.922669 2.783886 -5.493560 -7.218197 13.319116 -6.069115 0.174028 0.000000 -0.000011 -0.000002 -0.000001 0.000001 -67.490540 -6.212006 -9.170320 23.812153 -13.491623 4.937786 26.890728 -9.996009 14.917500 18.067187 0.633972 8.006991 -0.000000 -0.000000 -0.000000 
78.078621 21.253258 404.923584 348.449696 5.934662 78.246046 17.528595 -2.629196 -2.257045 4.726206 -0.447155 -1.612295 4.725433 -0.479569 -1.602650 6.465406 -1.639343 0.214736 11.775719 -13.542128 -8.135087 0.000002 -0.000000 -0.000000 0.580032 -19.446028 -9.511616 -35.985777 -13.622110 -31.789548 91.110120 -59.860987 88.159506 -2.705940 -2.699680 13.955739 -1.448712 5.125169 -4.608117 13.351708 14.812850 15.489418 -1.709252 -35.515481 12.256590 0.000000 -0.000001 0.000001 7.780503 14.021310 -70.942853 3.867104 5.505537 -70.147518 3.242624 5.239277 -63.485222 0.000002 0.000001 -0.000003 3.120466 7.572385 -70.662665 5.225283 5.817618 -83.849649 3.159038 5.196925 -62.566240 -0.000003 -0.000001 0.000003 4.009853 7.882653 -72.087982 4.298557 5.642027 -74.587401 2.492176 4.793666 -54.919147 0.000002 -0.000001 0.000004 7.577999 5.841216 -81.348277 3.806606 5.483403 -69.515487 4.741935 5.745319 -79.054433 -0.000001 0.000001 0.000002 0.162610 14.937142 13.876436 -49.541517 10.936491 55.404988 0.000012 51.590130 -0.000018 49.268074 11.776919 -14.750246 5.535794 -3.771074 -3.032805 2.457533 -9.078649 -15.939575 -8.950751 17.083988 -15.511807 0.000000 -0.000001 0.000001 -3.723529 -3.298344 73.104983 3.463137 -4.501830 75.128502 2.055823 -3.864244 56.013927 -0.000001 -0.000003 -0.000001 -3.073211 -4.980255 74.622358 3.766066 -4.571305 78.957007 3.246659 -4.438888 72.351934 0.000001 0.000001 -0.000008 -3.819540 -5.359691 78.849527 3.124243 -4.398176 70.762857 2.797526 -4.270527 66.441867 0.000000 0.000001 -0.000005 -1.444004 -6.451697 84.219531 3.515534 -4.515357 75.795081 1.230063 -3.155323 42.587193 -0.000000 -0.000001 0.000000 -7.560316 21.998974 27.955548 30.937496 4.533572 -3.236764 -8.129234 13.266413 -3.431331 0.047759 0.000017 -0.000015 -0.000001 0.000002 -0.000001 -66.199095 -7.771812 -8.392482 15.186815 -12.260886 7.333107 32.209297 -9.937819 18.035567 18.663277 0.648105 8.163434 -0.000000 -0.000000 0.000002 
76.429474 23.173767 405.623383 352.933933 6.022049 73.626789 21.458224 -3.056181 -2.354381 5.414565 -0.616763 -1.439701 5.414244 -0.647779 -1.422268 6.163373 -1.598009 0.528376 7.195256 -12.433643 -7.740821 -0.000001 -0.000001 -0.000001 0.840467 -18.507139 -6.511193 -39.533777 -14.587688 -27.863854 99.421142 -60.103301 93.807430 2.096342 -3.522874 19.326953 -2.106534 3.535121 -3.285203 12.465514 14.298484 12.354187 -2.539512 -30.873029 11.791234 0.000003 0.000001 -0.000001 8.123638 14.808023 -62.768332 3.296889 5.265878 -64.078034 2.332597 4.677924 -52.986289 -0.000000 -0.000001 -0.000006 3.451573 7.665292 -62.273936 4.457843 5.683341 -76.201791 2.440795 4.757258 -54.301469 -0.000002 0.000000 0.000003 3.128848 7.498665 -62.954475 3.914688 5.522416 -70.642748 1.914716 4.332407 -47.670243 0.000004 0.000000 0.000004 5.183492 5.219625 -71.176677 3.539489 5.376556 -66.693485 3.985041 5.546506 -71.372355 -0.000002 0.000003 0.000002 0.230345 17.092769 12.643125 -47.295686 13.344351 50.480501 0.000019 55.588123 -0.000022 43.125152 11.451455 0.572690 5.535785 -3.771073 -3.032811 2.457550 -9.078646 -15.939527 -8.950760 17.083983 -15.511812 -0.000000 -0.000003 0.000004 -3.723540 -3.298330 73.104997 3.463141 -4.501824 75.128488 2.055821 -3.864240 56.013927 -0.000001 -0.000002 0.000003 -3.073220 -4.980246 74.622351 3.766068 -4.571301 78.957007 3.246669 -4.438867 72.351948 -0.000000 0.000000 -0.000009 -3.819549 -5.359687 78.849521 3.124248 -4.398182 70.762829 2.797521 -4.270502 66.441895 0.000000 -0.000000 -0.000003 -1.444000 -6.451690 84.219538 3.515529 -4.515370 75.795081 1.230053 -3.155328 42.587189 0.000000 -0.000001 -0.000001 -21.992200 17.335666 30.672266 35.320903 5.968835 -1.684203 -8.381955 10.937859 -1.597970 -0.291537 -0.000020 -0.000026 0.000001 0.000000 -0.000002 -63.387031 -9.351568 -4.714746 3.768921 -8.707592 8.324875 37.103623 -10.945752 22.403830 19.264982 0.072429 2.524077 -0.000000 0.000000 -0.000001 
74.733543 24.875488 406.716461 357.029315 6.518707 67.763434 24.096008 -2.867703 -2.405078 6.213094 -0.590759 -1.177442 6.213542 -0.612108 -1.159687 5.974153 -1.791270 1.581686 4.256807 -11.857117 -6.388193 0.000003 -0.000000 0.000001 0.902546 -15.829937 -3.982021 -42.028456 -14.189936 -25.412620 110.871818 -62.479955 102.782333 8.580602 -3.501608 24.554291 -2.882268 1.637522 -1.718000 11.392032 13.818122 8.550173 -3.464579 -25.249662 11.506130 0.000002 0.000001 -0.000002 8.197183 16.155745 -52.825960 2.640167 4.893886 -56.671340 1.393591 3.794074 -40.325710 0.000003 -0.000002 -0.000001 3.691207 8.030115 -52.070951 3.559073 5.384916 -66.902406 1.667842 4.094563 -44.310934 0.000001 0.000000 0.000003 2.172729 6.856027 -51.919652 3.455701 5.339843 -65.796250 1.301056 3.682499 -38.906298 -0.000005 -0.000001 0.000006 2.749870 3.552201 -58.960775 3.216197 5.226051 -63.195513 3.111787 5.172206 -62.043335 -0.000001 -0.000002 0.000001 0.348384 18.943135 11.423662 -44.440933 13.980617 44.344436 0.000067 61.614740 -0.000053 35.176987 11.859232 11.049581 5.535794 -3.771062 -3.032807 2.457523 -9.078664 -15.939573 -8.950764 17.083968 -15.511798 0.000000 0.000000 -0.000000 -3.723540 -3.298349 73.104983 3.463128 -4.501822 75.128509 2.055814 -3.864250 56.013890 0.000000 0.000002 0.000002 -3.073233 -4.980255 74.622351 3.766066 -4.571290 78.956994 3.246659 -4.438880 72.351921 0.000002 0.000001 -0.000009 -3.819542 -5.359687 78.849541 3.124255 -4.398171 70.762850 2.797507 -4.270522 66.441847 -0.000000 -0.000001 -0.000002 -1.444002 -6.451699 84.219525 3.515543 -4.515371 75.795074 1.230061 -3.155312 42.587203 0.000001 -0.000000 0.000002 -37.730344 11.434866 35.287025 37.923365 6.239759 -1.428011 -7.043795 8.912208 -2.595443 -0.544821 0.000011 0.000013 0.000001 0.000001 -0.000000 -61.137604 -10.537419 -0.117478 -7.008835 -6.300284 8.280763 39.889001 -12.273297 26.642823 23.262069 -0.000003 -0.000018 -0.000000 -0.000000 -0.000000 
